<?xml version="1.0" encoding="iso-8859-1"?>
<!-- Generator: Adobe Illustrator 24.1.0, SVG Export Plug-In . SVG Version: 6.00 Build 0)  -->
<svg version="1.1" id="Layer_1" xmlns="http://www.w3.org/2000/svg" xmlns:xlink="http://www.w3.org/1999/xlink" x="0px" y="0px"
	 viewBox="0 0 32 32" style="enable-background:new 0 0 32 32;" xml:space="preserve">
<g>
	<linearGradient id="SVGID_1_" gradientUnits="userSpaceOnUse" x1="2.1413" y1="7.9987" x2="29.8587" y2="24.0013">
		<stop  offset="0.4514" style="stop-color:#176CB1"/>
		<stop  offset="1" style="stop-color:#363389"/>
	</linearGradient>
	<path style="fill:url(#SVGID_1_);" d="M16,0C7.163,0,0,7.163,0,16c0,8.837,7.163,16,16,16c8.837,0,16-7.163,16-16
		C32,7.163,24.837,0,16,0z M16,30.547C7.966,30.547,1.453,24.034,1.453,16C1.453,7.966,7.966,1.453,16,1.453
		c8.034,0,14.547,6.513,14.547,14.547C30.547,24.034,24.034,30.547,16,30.547z"/>
	<linearGradient id="SVGID_2_" gradientUnits="userSpaceOnUse" x1="10.7039" y1="12.613" x2="20.8221" y2="18.4547">
		<stop  offset="0.4514" style="stop-color:#176CB1"/>
		<stop  offset="1" style="stop-color:#363389"/>
	</linearGradient>
	<path style="fill:url(#SVGID_2_);" d="M16.7,25.594v-8.752h2.938l0.44-3.412H16.7v-2.178c0-0.987,0.274-1.66,1.69-1.66l1.806-0.001
		V6.54c-0.312-0.041-1.384-0.134-2.632-0.134c-2.604,0-4.388,1.59-4.388,4.509v2.516h-2.945v3.412h2.945v8.752H16.7z"/>
</g>
</svg>
