<?xml version="1.0" encoding="iso-8859-1"?>
<!-- Generator: Adobe Illustrator 24.1.0, SVG Export Plug-In . SVG Version: 6.00 Build 0)  -->
<svg version="1.1" id="Layer_1" xmlns="http://www.w3.org/2000/svg" xmlns:xlink="http://www.w3.org/1999/xlink" x="0px" y="0px"
	 viewBox="0 0 32 32" style="enable-background:new 0 0 32 32;" xml:space="preserve">
<g>
	<linearGradient id="SVGID_1_" gradientUnits="userSpaceOnUse" x1="2.1413" y1="7.9987" x2="29.8587" y2="24.0013">
		<stop  offset="0.2547" style="stop-color:#81CEEB"/>
		<stop  offset="1" style="stop-color:#1A4698"/>
	</linearGradient>
	<path style="fill:url(#SVGID_1_);" d="M16,0C7.163,0,0,7.163,0,16c0,8.837,7.163,16,16,16c8.837,0,16-7.163,16-16
		C32,7.163,24.837,0,16,0z M16,30.547C7.966,30.547,1.453,24.034,1.453,16C1.453,7.966,7.966,1.453,16,1.453
		c8.034,0,14.547,6.513,14.547,14.547C30.547,24.034,24.034,30.547,16,30.547z"/>
	<linearGradient id="SVGID_2_" gradientUnits="userSpaceOnUse" x1="8.8964" y1="15.6385" x2="24.0095" y2="15.6385">
		<stop  offset="0.2547" style="stop-color:#81CEEB"/>
		<stop  offset="1" style="stop-color:#1A4698"/>
	</linearGradient>
	<path style="fill-rule:evenodd;clip-rule:evenodd;fill:url(#SVGID_2_);" d="M23.242,18.611c0.373,0.186,0.62,0.279,0.713,0.434
		c0.093,0.155,0.093,0.9-0.217,1.767c-0.31,0.868-1.795,1.662-2.51,1.768c-0.641,0.095-1.452,0.136-2.342-0.147
		c-0.54-0.172-1.233-0.4-2.12-0.784c-3.73-1.609-6.166-5.365-6.352-5.613c-0.186-0.248-1.519-2.015-1.519-3.846
		c0-1.829,0.961-2.728,1.301-3.1c0.341-0.373,0.745-0.465,0.992-0.465c0.248,0,0.496,0.002,0.713,0.013
		c0.228,0.011,0.535-0.087,0.836,0.638c0.31,0.745,1.054,2.574,1.147,2.759c0.093,0.186,0.155,0.404,0.031,0.652
		c-0.124,0.248-0.186,0.403-0.372,0.62c-0.186,0.218-0.391,0.486-0.558,0.652c-0.186,0.186-0.38,0.387-0.162,0.758
		c0.217,0.373,0.963,1.59,2.068,2.576c1.421,1.266,2.618,1.658,2.99,1.844c0.372,0.186,0.589,0.155,0.806-0.093
		c0.217-0.248,0.929-1.085,1.178-1.457c0.248-0.373,0.495-0.31,0.837-0.187C21.043,17.526,22.871,18.424,23.242,18.611"/>
</g>
</svg>
